<svg width="45" height="50" viewBox="0 0 45 50" fill="none" xmlns="http://www.w3.org/2000/svg">
<path d="M11.699 25.6191C11.699 24.2729 10.7638 23.4688 9.11475 23.4688C8.44168 23.4688 7.98648 23.5343 7.74736 23.5981V27.9216C8.03076 27.9854 8.37792 28.0084 8.85438 28.0084C10.6132 28.0084 11.699 27.1175 11.699 25.6191Z" fill="#ED4C5C"/>
<path d="M21.9119 23.5113C21.1733 23.5113 20.695 23.5768 20.4116 23.6423V33.2211C20.695 33.2867 21.1502 33.2867 21.5629 33.2867C24.5598 33.3079 26.5153 31.6571 26.5153 28.1607C26.5383 25.1195 24.7565 23.5113 21.9119 23.5113V23.5113Z" fill="#ED4C5C"/>
<path d="M41.4786 17.8841H40.2777V12.0904C40.2767 12.0536 40.2732 12.0169 40.2671 11.9806C40.269 11.7476 40.1866 11.5217 40.0351 11.3447L30.3943 0.334761L30.3872 0.327677C30.2648 0.194819 30.1087 0.0975147 29.9355 0.046052L29.8824 0.0283393C29.8088 0.00999115 29.7333 0.000477894 29.6574 0H5.96372C4.8815 0 4.00298 0.8803 4.00298 1.96075V17.8841H2.80208C1.25403 17.8841 0 19.1381 0 20.6862V35.2598C0 36.8061 1.2558 38.0619 2.80208 38.0619H4.00298V48.0392C4.00298 49.1197 4.8815 50 5.96372 50H38.317C39.3974 50 40.2777 49.1197 40.2777 48.0392V38.0619H41.4786C43.0267 38.0619 44.2807 36.8061 44.2807 35.2598V20.6862C44.2807 19.1381 43.0249 17.8841 41.4786 17.8841V17.8841ZM5.96372 1.96075H28.6762V11.993C28.6762 12.535 29.1154 12.9725 29.6574 12.9725H38.3187V17.8841H5.96372V1.96075ZM30.0347 28.0509C30.0347 30.853 29.0145 32.7872 27.5993 33.981C26.0583 35.2616 23.7132 35.8709 20.8456 35.8709C19.1293 35.8709 17.9142 35.7611 17.087 35.6548V21.2742C18.3039 21.0794 19.8891 20.9713 21.5629 20.9713C24.342 20.9713 26.1451 21.4708 27.5568 22.5353C29.0782 23.6636 30.0347 25.4667 30.0347 28.0509V28.0509ZM4.46527 35.7204V21.2742C5.48549 21.1006 6.92019 20.9713 8.93939 20.9713C10.9816 20.9713 12.4376 21.3628 13.4135 22.1439C14.3469 22.8825 14.9757 24.0993 14.9757 25.5323C14.9757 26.9669 14.4993 28.182 13.6296 29.0074C12.4996 30.0719 10.8275 30.5501 8.87208 30.5501C8.43813 30.5501 8.04669 30.5289 7.74381 30.4846V35.7204H4.46527ZM38.317 47.5079H5.96372V38.0619H38.317V47.5079ZM41.158 23.7947H35.5308V27.1405H40.7878V29.8346H35.5308V35.7204H32.2098V21.0794H41.158V23.7947Z" fill="#ED4C5C"/>
</svg>
