<svg width="8" height="8" viewBox="0 0 8 8" fill="none" xmlns="http://www.w3.org/2000/svg">
<path d="M1.45122 6.78452L3.64647 4.58927L4.00002 4.23571L4.35357 4.58927L6.54884 6.78453C6.61391 6.84961 6.71946 6.84961 6.78453 6.78453C6.84961 6.71946 6.84961 6.61391 6.78453 6.54884L4.58927 4.35357L4.23571 4.00002L4.58927 3.64647L6.78452 1.45122C6.84961 1.38613 6.84961 1.28058 6.78452 1.21549C6.71945 1.15042 6.61392 1.15042 6.54885 1.21549L6.54884 1.2155L4.35357 3.41077L4.00002 3.76433L3.64647 3.41077L1.45121 1.2155C1.45121 1.2155 1.45121 1.2155 1.45121 1.2155C1.38612 1.15042 1.2806 1.15042 1.2155 1.2155C1.2155 1.2155 1.2155 1.2155 1.2155 1.2155M1.45122 6.78452L1.2155 1.2155M1.45122 6.78452C1.38613 6.84961 1.28058 6.84961 1.21549 6.78452C1.15042 6.71945 1.15042 6.61392 1.21549 6.54885L1.2155 6.54884L3.41077 4.35357L3.76433 4.00002L3.41077 3.64647L1.2155 1.45121M1.45122 6.78452L1.2155 1.45121M1.2155 1.2155C1.15042 1.2806 1.15042 1.38612 1.2155 1.45121M1.2155 1.2155L1.2155 1.45121M1.2155 1.45121C1.2155 1.45121 1.2155 1.45121 1.2155 1.45121M1.2155 1.45121L1.2155 1.45121" stroke="white"/>
</svg>
