<svg width="20" height="20" viewBox="0 0 20 20" fill="none" xmlns="http://www.w3.org/2000/svg">
<circle cx="10" cy="10" r="10" fill="#E0E0E0"/>
<path d="M9.99999 9.7643L9.64644 9.41074L7.45118 7.21547C7.45118 7.21547 7.45118 7.21547 7.45118 7.21547C7.38609 7.15039 7.28057 7.15039 7.21547 7.21547C7.21547 7.21547 7.21547 7.21547 7.21547 7.21547M9.99999 9.7643L6.86192 7.80473C6.60157 7.54438 6.60157 7.12227 6.86192 6.86192L7.21547 7.21547M9.99999 9.7643L10.3535 9.41074M9.99999 9.7643L10.3535 9.41074M7.21547 7.21547C7.15039 7.28057 7.15039 7.38609 7.21547 7.45118L7.21547 7.21547ZM10.3535 9.41074L12.5488 7.21547L12.5488 7.21546M10.3535 9.41074L12.5488 7.21546M12.5488 7.21546C12.6139 7.15039 12.7194 7.15039 12.7845 7.21546L12.5488 7.21546ZM9.41074 9.64644L7.21547 7.45118L12.7845 7.21546C12.8496 7.28055 12.8496 7.38608 12.7845 7.45118C12.7845 7.45118 12.7845 7.45119 12.7845 7.45119L10.5892 9.64644L10.2357 9.99999L10.5892 10.3535L12.7845 12.5488C12.8496 12.6139 12.8496 12.7194 12.7845 12.7845C12.7194 12.8496 12.6139 12.8496 12.5488 12.7845L10.3535 10.5892L9.99999 10.2357L9.64644 10.5892L7.45119 12.7845C7.45119 12.7845 7.45118 12.7845 7.45118 12.7845C7.38608 12.8496 7.28055 12.8496 7.21546 12.7845C7.15039 12.7194 7.15039 12.6139 7.21546 12.5488L7.21547 12.5488L9.41074 10.3535L9.7643 9.99999L9.41074 9.64644Z" stroke="white"/>
</svg>
